<svg width="241" height="190" viewBox="0 0 241 190" fill="none" xmlns="http://www.w3.org/2000/svg">
<rect x="1" y="1" width="239" height="188" rx="39" fill="black" stroke="white" stroke-width="2"/>
<path d="M48.7334 64.0156H59.8955L76.3311 110.993L92.7666 64.0156H103.929L80.8135 128H71.8486L48.7334 64.0156ZM42.7129 64.0156H53.8311L55.8525 109.807V128H42.7129V64.0156ZM98.8311 64.0156H109.993V128H96.8096V109.807L98.8311 64.0156Z" fill="white"/>
<path d="M180.5 90.7484L160.127 111.126L139.753 90.7484L131 99.5016L160.127 128.624L189.253 99.5016L180.5 90.7484Z" fill="white"/>
<path d="M171.256 72.9887C170.567 72.2946 169.747 71.7436 168.844 71.3674C167.942 70.9911 166.973 70.797 165.995 70.7962C164.145 70.7966 162.362 71.4916 161 72.7437C159.638 71.4914 157.855 70.7963 156.005 70.7962C155.026 70.7973 154.056 70.9919 153.152 71.3691C152.249 71.7462 151.428 72.2984 150.739 72.9937C147.797 75.9475 147.799 80.5675 150.741 83.5087L161 93.7675L171.259 83.5087C174.201 80.5675 174.202 75.9475 171.256 72.9887Z" fill="#F34242"/>
</svg>
